<svg width="38" height="29" viewBox="0 0 38 29" fill="none" xmlns="http://www.w3.org/2000/svg">
<g filter="url(#filter0_d_3530_4509)">
<rect x="6.37109" y="2.52393" width="25.6135" height="16.7905" rx="6" fill="#0075FF"/>
</g>
<path d="M24.723 7.34959C24.7184 7.33508 24.7076 7.32174 24.6919 7.31111C24.6762 7.30048 24.6561 7.29301 24.6342 7.28957C23.1691 7.05477 19.7841 7.8915 17.9501 9.09324C17.623 9.30593 17.3248 9.53691 17.0589 9.78355C16.4934 9.75075 15.9278 9.77814 15.4458 9.91587C14.0859 10.3082 13.6899 11.3321 13.5796 11.7725C13.5733 11.7966 13.5757 11.8213 13.5865 11.8447C13.5973 11.8681 13.6162 11.8896 13.6418 11.9074C13.6674 11.9252 13.6989 11.9389 13.7339 11.9473C13.7689 11.9558 13.8064 11.9588 13.8435 11.9561L16.0274 11.7982C16.0289 11.9062 16.0389 12.014 16.0571 12.1213C16.0681 12.1958 16.1186 12.2654 16.1997 12.318L17.0454 12.8711C17.1258 12.9242 17.232 12.9573 17.3456 12.9646C17.5083 12.9765 17.6718 12.983 17.8356 12.9841L17.596 14.4139C17.592 14.4382 17.5966 14.4628 17.6095 14.4857C17.6224 14.5086 17.6433 14.5293 17.6704 14.546C17.6976 14.5628 17.7303 14.5752 17.766 14.5823C17.8016 14.5894 17.8393 14.5909 17.8761 14.5869C18.5467 14.5164 20.1113 14.2568 20.7063 13.3653C20.9165 13.0493 20.9595 12.6804 20.9109 12.3115C21.2881 12.1371 21.6414 11.9416 21.9668 11.7271C23.8065 10.5271 25.0756 8.35767 24.723 7.34959ZM20.1313 10.2956C19.9633 10.1856 19.8489 10.0453 19.8025 9.89265C19.7561 9.73996 19.7798 9.58168 19.8707 9.43784C19.9615 9.29399 20.1154 9.17104 20.3129 9.08454C20.5103 8.99803 20.7425 8.95186 20.98 8.95186C21.2175 8.95186 21.4496 8.99803 21.6471 9.08454C21.8446 9.17104 21.9984 9.29399 22.0893 9.43784C22.1801 9.58168 22.2039 9.73996 22.1575 9.89265C22.1111 10.0453 21.9967 10.1856 21.8287 10.2956C21.7173 10.3687 21.585 10.4268 21.4394 10.4663C21.2937 10.5059 21.1376 10.5263 20.98 10.5263C20.8223 10.5263 20.6662 10.5059 20.5206 10.4663C20.375 10.4268 20.2427 10.3687 20.1313 10.2956Z" fill="white"/>
<path d="M16.9881 13.2715C16.8511 13.3615 16.6312 13.3966 16.3666 13.4266C15.772 13.493 15.247 13.1562 15.3538 12.7622C15.3946 12.6128 15.5151 12.4034 15.5902 12.3543C15.6066 12.3437 15.6175 12.3301 15.6214 12.3152C15.6252 12.3004 15.6219 12.2851 15.6118 12.2716C15.6017 12.2581 15.5853 12.247 15.5651 12.2399C15.5448 12.2328 15.5216 12.2301 15.4989 12.2321C15.1664 12.2588 14.8571 12.3576 14.6202 12.5128C14.0321 12.8986 13.9766 14.3303 13.9766 14.3303C13.9766 14.3303 16.1617 14.2939 16.7498 13.908C16.9873 13.7529 17.1382 13.5498 17.1782 13.3315C17.1875 13.263 17.0602 13.2221 16.9881 13.2715Z" fill="white"/>
<defs>
<filter id="filter0_d_3530_4509" x="0.871093" y="0.523926" width="36.6133" height="27.7905" filterUnits="userSpaceOnUse" color-interpolation-filters="sRGB">
<feFlood flood-opacity="0" result="BackgroundImageFix"/>
<feColorMatrix in="SourceAlpha" type="matrix" values="0 0 0 0 0 0 0 0 0 0 0 0 0 0 0 0 0 0 127 0" result="hardAlpha"/>
<feOffset dy="3.5"/>
<feGaussianBlur stdDeviation="2.75"/>
<feColorMatrix type="matrix" values="0 0 0 0 0 0 0 0 0 0 0 0 0 0 0 0 0 0 0.02 0"/>
<feBlend mode="normal" in2="BackgroundImageFix" result="effect1_dropShadow_3530_4509"/>
<feBlend mode="normal" in="SourceGraphic" in2="effect1_dropShadow_3530_4509" result="shape"/>
</filter>
</defs>
</svg>
