<svg width="29" height="30" viewBox="0 0 29 30" fill="none" xmlns="http://www.w3.org/2000/svg">
<circle cx="14.5" cy="15.3589" r="14.5" fill="#0075FF"/>
<g clip-path="url(#clip0_3530_4577)">
<path d="M14.5074 7.36914C10.3387 7.36914 6.96289 10.7525 6.96289 14.9212C6.96289 19.09 10.3387 22.4733 14.5074 22.4733C18.6837 22.4733 22.0671 19.09 22.0671 14.9212C22.0671 10.7525 18.6837 7.36914 14.5074 7.36914ZM14.515 20.9629C11.177 20.9629 8.47331 18.2592 8.47331 14.9212C8.47331 11.5832 11.177 8.87956 14.515 8.87956C17.853 8.87956 20.5566 11.5832 20.5566 14.9212C20.5566 18.2592 17.853 20.9629 14.515 20.9629ZM17.1582 14.166C17.785 14.166 18.291 13.66 18.291 13.0332C18.291 12.4064 17.785 11.9004 17.1582 11.9004C16.5314 11.9004 16.0254 12.4064 16.0254 13.0332C16.0254 13.66 16.5314 14.166 17.1582 14.166ZM11.8717 14.166C12.4986 14.166 13.0046 13.66 13.0046 13.0332C13.0046 12.4064 12.4986 11.9004 11.8717 11.9004C11.2449 11.9004 10.7389 12.4064 10.7389 13.0332C10.7389 13.66 11.2449 14.166 11.8717 14.166ZM14.515 19.0749C16.048 19.0749 17.3848 18.2366 18.1022 16.998C18.2457 16.7488 18.0645 16.4316 17.7699 16.4316H11.26C10.973 16.4316 10.7842 16.7488 10.9277 16.998C11.6452 18.2366 12.9819 19.0749 14.515 19.0749Z" fill="white"/>
</g>
<defs>
<clipPath id="clip0_3530_4577">
<rect width="18.125" height="18.125" fill="white" transform="translate(5.4375 5.85889)"/>
</clipPath>
</defs>
</svg>
