<svg width="38" height="29" viewBox="0 0 38 29" fill="none" xmlns="http://www.w3.org/2000/svg">
<g filter="url(#filter0_d_3530_4499)">
<rect x="6.19531" y="2.52393" width="25.6135" height="16.7905" rx="6" fill="#0075FF"/>
</g>
<path d="M17.0016 14.0675C17.4437 14.0675 17.802 13.8326 17.802 13.5428C17.802 13.253 17.4437 13.0181 17.0016 13.0181C16.5595 13.0181 16.2012 13.253 16.2012 13.5428C16.2012 13.8326 16.5595 14.0675 17.0016 14.0675Z" fill="white"/>
<path d="M22.6051 14.0675C23.0472 14.0675 23.4055 13.8326 23.4055 13.5428C23.4055 13.253 23.0472 13.0181 22.6051 13.0181C22.163 13.0181 21.8047 13.253 21.8047 13.5428C21.8047 13.8326 22.163 14.0675 22.6051 14.0675Z" fill="white"/>
<path d="M24.026 8.7025C23.9698 8.65742 23.8989 8.62111 23.8186 8.59621C23.7383 8.5713 23.6506 8.55844 23.5617 8.55854H15.949L15.7957 7.98825C15.7793 7.92751 15.7308 7.87248 15.6587 7.83284C15.5866 7.79319 15.4955 7.77147 15.4014 7.77148H13.8006C13.6945 7.77148 13.5927 7.79912 13.5176 7.84833C13.4426 7.89753 13.4004 7.96426 13.4004 8.03384C13.4004 8.10342 13.4426 8.17015 13.5176 8.21935C13.5927 8.26855 13.6945 8.29619 13.8006 8.29619H15.0658L16.2079 12.5394C16.2242 12.6001 16.2727 12.6552 16.3448 12.6948C16.4169 12.7344 16.508 12.7562 16.6021 12.7562H23.0054C23.1116 12.7562 23.2134 12.7285 23.2884 12.6793C23.3635 12.6301 23.4057 12.5634 23.4057 12.4938C23.4057 12.4242 23.3635 12.3575 23.2884 12.3083C23.2134 12.2591 23.1116 12.2315 23.0054 12.2315H16.9378L16.7967 11.7067H22.8414C22.9802 11.7066 23.1146 11.6751 23.222 11.6174C23.3294 11.5598 23.4031 11.4796 23.4307 11.3905L24.1511 9.02929C24.1684 8.97215 24.1662 8.91319 24.1446 8.85668C24.1229 8.80017 24.0824 8.74751 24.026 8.7025Z" fill="white"/>
<defs>
<filter id="filter0_d_3530_4499" x="0.695312" y="0.523926" width="36.6133" height="27.7905" filterUnits="userSpaceOnUse" color-interpolation-filters="sRGB">
<feFlood flood-opacity="0" result="BackgroundImageFix"/>
<feColorMatrix in="SourceAlpha" type="matrix" values="0 0 0 0 0 0 0 0 0 0 0 0 0 0 0 0 0 0 127 0" result="hardAlpha"/>
<feOffset dy="3.5"/>
<feGaussianBlur stdDeviation="2.75"/>
<feColorMatrix type="matrix" values="0 0 0 0 0 0 0 0 0 0 0 0 0 0 0 0 0 0 0.02 0"/>
<feBlend mode="normal" in2="BackgroundImageFix" result="effect1_dropShadow_3530_4499"/>
<feBlend mode="normal" in="SourceGraphic" in2="effect1_dropShadow_3530_4499" result="shape"/>
</filter>
</defs>
</svg>
