<svg width="16" height="16" viewBox="0 0 16 16" fill="none" xmlns="http://www.w3.org/2000/svg">
<path d="M13.6296 12.9011L10.873 10.1445C11.5367 9.26104 11.895 8.18565 11.8937 7.08066C11.8937 4.2582 9.59746 1.96191 6.775 1.96191C3.95254 1.96191 1.65625 4.2582 1.65625 7.08066C1.65625 9.90312 3.95254 12.1994 6.775 12.1994C7.87998 12.2006 8.95537 11.8424 9.83886 11.1787L12.5954 13.9352C12.7349 14.06 12.9169 14.1266 13.104 14.1213C13.2911 14.1161 13.4691 14.0394 13.6014 13.9071C13.7338 13.7748 13.8104 13.5968 13.8157 13.4097C13.8209 13.2226 13.7543 13.0406 13.6296 12.9011ZM3.11875 7.08066C3.11875 6.35752 3.33318 5.65063 3.73494 5.04936C4.13669 4.44809 4.70772 3.97946 5.37581 3.70273C6.0439 3.426 6.77905 3.35359 7.4883 3.49467C8.19754 3.63574 8.84902 3.98397 9.36036 4.4953C9.87169 5.00664 10.2199 5.65812 10.361 6.36736C10.5021 7.07661 10.4297 7.81176 10.1529 8.47985C9.8762 9.14794 9.40757 9.71897 8.8063 10.1207C8.20503 10.5225 7.49814 10.7369 6.775 10.7369C5.80566 10.7357 4.87635 10.3502 4.19092 9.66474C3.5055 8.97931 3.11991 8.05 3.11875 7.08066Z" fill="#2D3748"/>
</svg>
