<svg width="37" height="29" viewBox="0 0 37 29" fill="none" xmlns="http://www.w3.org/2000/svg">
<g filter="url(#filter0_d_3530_4519)">
<rect x="5.54297" y="2.52393" width="25.6135" height="16.7905" rx="6" fill="#0075FF"/>
</g>
<path d="M14.3349 8.42623H22.3391C22.4326 8.4262 22.526 8.43009 22.6188 8.43787C22.5873 8.29321 22.5115 8.15423 22.396 8.02929C22.2804 7.90435 22.1274 7.79606 21.9462 7.71093C21.765 7.6258 21.5595 7.5656 21.3418 7.53397C21.1242 7.50233 20.8991 7.49991 20.68 7.52686L14.0973 8.26357H14.0898C13.6766 8.31537 13.3091 8.46862 13.0625 8.69202C13.4341 8.51876 13.8789 8.42584 14.3349 8.42623Z" fill="white"/>
<path d="M22.3394 8.82031H14.3352C13.9108 8.82062 13.5039 8.93128 13.2038 9.12801C12.9036 9.32475 12.7348 9.59149 12.7344 9.86972V13.0179C12.7348 13.2962 12.9036 13.5629 13.2038 13.7596C13.5039 13.9564 13.9108 14.067 14.3352 14.0673H22.3394C22.7639 14.067 23.1708 13.9564 23.4709 13.7596C23.771 13.5629 23.9398 13.2962 23.9403 13.0179V9.86972C23.9398 9.59149 23.771 9.32475 23.4709 9.12801C23.1708 8.93128 22.7639 8.82062 22.3394 8.82031ZM21.1513 11.9685C20.993 11.9685 20.8382 11.9378 20.7066 11.8801C20.575 11.8224 20.4724 11.7405 20.4118 11.6446C20.3512 11.5487 20.3354 11.4432 20.3663 11.3415C20.3972 11.2397 20.4734 11.1462 20.5853 11.0728C20.6973 10.9994 20.8399 10.9494 20.9952 10.9292C21.1504 10.909 21.3114 10.9193 21.4576 10.9591C21.6039 10.9988 21.7289 11.066 21.8168 11.1523C21.9048 11.2386 21.9517 11.34 21.9517 11.4438C21.9517 11.583 21.8674 11.7164 21.7173 11.8148C21.5672 11.9132 21.3636 11.9685 21.1513 11.9685Z" fill="white"/>
<path d="M12.748 10.9755V9.34405C12.748 8.98873 13.0482 8.39303 14.09 8.26399C14.9742 8.15527 15.8497 8.15527 15.8497 8.15527C15.8497 8.15527 16.425 8.41762 15.9497 8.41762C15.4745 8.41762 15.487 8.81935 15.9497 8.81935C16.4125 8.81935 15.9497 9.20468 15.9497 9.20468L14.0863 10.5902L12.748 10.9755Z" fill="white"/>
<defs>
<filter id="filter0_d_3530_4519" x="0.0429683" y="0.523926" width="36.6133" height="27.7905" filterUnits="userSpaceOnUse" color-interpolation-filters="sRGB">
<feFlood flood-opacity="0" result="BackgroundImageFix"/>
<feColorMatrix in="SourceAlpha" type="matrix" values="0 0 0 0 0 0 0 0 0 0 0 0 0 0 0 0 0 0 127 0" result="hardAlpha"/>
<feOffset dy="3.5"/>
<feGaussianBlur stdDeviation="2.75"/>
<feColorMatrix type="matrix" values="0 0 0 0 0 0 0 0 0 0 0 0 0 0 0 0 0 0 0.02 0"/>
<feBlend mode="normal" in2="BackgroundImageFix" result="effect1_dropShadow_3530_4519"/>
<feBlend mode="normal" in="SourceGraphic" in2="effect1_dropShadow_3530_4519" result="shape"/>
</filter>
</defs>
</svg>
