<svg width="56" height="41" viewBox="0 0 56 41" fill="none" xmlns="http://www.w3.org/2000/svg">
<g filter="url(#filter0_d_3530_4600)">
<rect x="5.5" y="2.42676" width="45" height="29.3833" rx="12" fill="#0075FF"/>
</g>
<path d="M24.4844 22.6275C25.261 22.6275 25.8906 22.2164 25.8906 21.7092C25.8906 21.2021 25.261 20.791 24.4844 20.791C23.7077 20.791 23.0781 21.2021 23.0781 21.7092C23.0781 22.2164 23.7077 22.6275 24.4844 22.6275Z" fill="white"/>
<path d="M34.3281 22.6275C35.1048 22.6275 35.7344 22.2164 35.7344 21.7092C35.7344 21.2021 35.1048 20.791 34.3281 20.791C33.5515 20.791 32.9219 21.2021 32.9219 21.7092C32.9219 22.2164 33.5515 22.6275 34.3281 22.6275Z" fill="white"/>
<path d="M36.8242 13.2387C36.7254 13.1598 36.601 13.0962 36.4599 13.0526C36.3188 13.0091 36.1647 12.9865 36.0086 12.9867H22.6338L22.3645 11.9887C22.3357 11.8824 22.2506 11.7861 22.1239 11.7167C21.9972 11.6474 21.8372 11.6094 21.6719 11.6094H18.8594C18.6729 11.6094 18.4941 11.6577 18.3622 11.7438C18.2303 11.8299 18.1562 11.9467 18.1562 12.0685C18.1562 12.1903 18.2303 12.307 18.3622 12.3931C18.4941 12.4792 18.6729 12.5276 18.8594 12.5276H21.0821L23.0887 19.9532C23.1174 20.0595 23.2026 20.1558 23.3292 20.2252C23.4559 20.2946 23.6159 20.3326 23.7812 20.3325H35.0312C35.2177 20.3325 35.3966 20.2842 35.5284 20.1981C35.6603 20.112 35.7344 19.9952 35.7344 19.8734C35.7344 19.7517 35.6603 19.6349 35.5284 19.5488C35.3966 19.4627 35.2177 19.4143 35.0312 19.4143H24.371L24.1231 18.4961H34.743C34.9868 18.4959 35.2231 18.4407 35.4117 18.3398C35.6004 18.2389 35.7299 18.0986 35.7783 17.9426L37.0439 13.8105C37.0744 13.7105 37.0705 13.6074 37.0325 13.5085C36.9945 13.4096 36.9234 13.3174 36.8242 13.2387Z" fill="white"/>
<defs>
<filter id="filter0_d_3530_4600" x="-4.76837e-07" y="0.426758" width="56" height="40.3833" filterUnits="userSpaceOnUse" color-interpolation-filters="sRGB">
<feFlood flood-opacity="0" result="BackgroundImageFix"/>
<feColorMatrix in="SourceAlpha" type="matrix" values="0 0 0 0 0 0 0 0 0 0 0 0 0 0 0 0 0 0 127 0" result="hardAlpha"/>
<feOffset dy="3.5"/>
<feGaussianBlur stdDeviation="2.75"/>
<feColorMatrix type="matrix" values="0 0 0 0 0 0 0 0 0 0 0 0 0 0 0 0 0 0 0.02 0"/>
<feBlend mode="normal" in2="BackgroundImageFix" result="effect1_dropShadow_3530_4600"/>
<feBlend mode="normal" in="SourceGraphic" in2="effect1_dropShadow_3530_4600" result="shape"/>
</filter>
</defs>
</svg>
