<svg width="47" height="43" viewBox="0 0 47 43" fill="none" xmlns="http://www.w3.org/2000/svg">
<g filter="url(#filter0_d_3530_4627)">
<rect x="6" y="2.74316" width="35.5" height="30.3162" rx="12" fill="#0075FF"/>
</g>
<path d="M18.1854 13.3996H29.2792C29.4088 13.3995 29.5382 13.4065 29.6668 13.4206C29.6232 13.1594 29.5181 12.9084 29.3579 12.6829C29.1977 12.4573 28.9857 12.2618 28.7346 12.108C28.4835 11.9543 28.1985 11.8457 27.8969 11.7885C27.5953 11.7314 27.2833 11.727 26.9797 11.7757L17.8561 13.1059H17.8457C17.273 13.1994 16.7637 13.4761 16.4219 13.8795C16.9369 13.5666 17.5534 13.3989 18.1854 13.3996Z" fill="white"/>
<path d="M29.2793 14.1113H18.1855C17.5973 14.1119 17.0333 14.3117 16.6174 14.6669C16.2014 15.0221 15.9674 15.5037 15.9668 16.0061V21.6904C15.9674 22.1927 16.2014 22.6744 16.6174 23.0296C17.0333 23.3848 17.5973 23.5846 18.1855 23.5851H29.2793C29.8675 23.5846 30.4315 23.3848 30.8475 23.0296C31.2634 22.6744 31.4974 22.1927 31.498 21.6904V16.0061C31.4974 15.5037 31.2634 15.0221 30.8475 14.6669C30.4315 14.3117 29.8675 14.1119 29.2793 14.1113ZM27.6326 19.7956C27.4132 19.7956 27.1987 19.7401 27.0162 19.636C26.8338 19.5319 26.6916 19.3839 26.6076 19.2108C26.5237 19.0377 26.5017 18.8472 26.5445 18.6634C26.5873 18.4796 26.693 18.3108 26.8481 18.1783C27.0033 18.0458 27.2009 17.9556 27.4161 17.9191C27.6313 17.8825 27.8544 17.9013 28.0571 17.973C28.2598 18.0447 28.4331 18.1661 28.555 18.3219C28.6769 18.4777 28.7419 18.6609 28.7419 18.8482C28.7419 19.0995 28.6251 19.3405 28.417 19.5181C28.209 19.6958 27.9268 19.7956 27.6326 19.7956Z" fill="white"/>
<path d="M15.9844 18.0033V15.0575C15.9844 14.416 16.4004 13.3404 17.8443 13.1074C19.0698 12.9111 20.2832 12.9111 20.2832 12.9111C20.2832 12.9111 21.0806 13.3848 20.4219 13.3848C19.7632 13.3848 19.7805 14.1102 20.4219 14.1102C21.0632 14.1102 20.4219 14.8059 20.4219 14.8059L17.8391 17.3076L15.9844 18.0033Z" fill="white"/>
<defs>
<filter id="filter0_d_3530_4627" x="0.5" y="0.743164" width="46.5" height="41.3164" filterUnits="userSpaceOnUse" color-interpolation-filters="sRGB">
<feFlood flood-opacity="0" result="BackgroundImageFix"/>
<feColorMatrix in="SourceAlpha" type="matrix" values="0 0 0 0 0 0 0 0 0 0 0 0 0 0 0 0 0 0 127 0" result="hardAlpha"/>
<feOffset dy="3.5"/>
<feGaussianBlur stdDeviation="2.75"/>
<feColorMatrix type="matrix" values="0 0 0 0 0 0 0 0 0 0 0 0 0 0 0 0 0 0 0.02 0"/>
<feBlend mode="normal" in2="BackgroundImageFix" result="effect1_dropShadow_3530_4627"/>
<feBlend mode="normal" in="SourceGraphic" in2="effect1_dropShadow_3530_4627" result="shape"/>
</filter>
</defs>
</svg>
