<svg width="46" height="42" viewBox="0 0 46 42" fill="none" xmlns="http://www.w3.org/2000/svg">
<g filter="url(#filter0_d_3530_4609)">
<rect x="6" y="2.74316" width="34.5" height="29.3833" rx="12" fill="#0075FF"/>
</g>
<path d="M24.3281 16.5284H29.0449C29.0781 16.5284 29.1096 16.5397 29.1326 16.5592C29.1555 16.5788 29.168 16.6048 29.168 16.6315V22.0261C29.168 22.5094 28.9426 22.9733 28.5405 23.3157C28.1385 23.6582 27.5928 23.8508 27.0234 23.8508H19.4766C18.9072 23.8508 18.3615 23.6582 17.9595 23.3157C17.5574 22.9733 17.332 22.5094 17.332 22.0261V12.8438C17.332 12.3605 17.5574 11.8965 17.9595 11.5541C18.3615 11.2117 18.9072 11.019 19.4766 11.019H22.5762C22.6094 11.019 22.6409 11.0303 22.6639 11.0499C22.6868 11.0694 22.6992 11.0954 22.6992 11.1221V15.1394C22.6992 15.5084 22.8714 15.8619 23.177 16.1222C23.4826 16.3825 23.8967 16.5284 24.3281 16.5284ZM20.5547 21.1196H25.9453C26.0908 21.1196 26.2307 21.0703 26.3341 20.9823C26.4375 20.8942 26.4961 20.7743 26.4961 20.6487C26.4961 20.5232 26.4375 20.4033 26.3341 20.3152C26.2307 20.2271 26.0908 20.1779 25.9453 20.1779H20.5547C20.4092 20.1779 20.2693 20.2271 20.1659 20.3152C20.0625 20.4033 20.0039 20.5232 20.0039 20.6487C20.0039 20.7743 20.0625 20.8942 20.1659 20.9823C20.2693 21.0703 20.4092 21.1196 20.5547 21.1196ZM20.5547 18.824H25.9453C26.0908 18.824 26.2307 18.7748 26.3341 18.6867C26.4375 18.5986 26.4961 18.4787 26.4961 18.3532C26.4961 18.2276 26.4375 18.1077 26.3341 18.0196C26.2307 17.9315 26.0908 17.8823 25.9453 17.8823H20.5547C20.4092 17.8823 20.2693 17.9315 20.1659 18.0196C20.0625 18.1077 20.0039 18.2276 20.0039 18.3532C20.0039 18.4787 20.0625 18.5986 20.1659 18.6867C20.2693 18.7748 20.4092 18.824 20.5547 18.824Z" fill="white" stroke="#0075FF" stroke-width="0.0234375"/>
<path d="M23.8964 11.3835C23.8964 11.3835 23.8964 11.3835 23.8964 11.3835L28.7415 15.5101C28.7415 15.5101 28.7415 15.5101 28.7415 15.5101C28.7491 15.5166 28.754 15.5247 28.756 15.5332C28.758 15.5416 28.757 15.5504 28.7531 15.5584C28.7491 15.5666 28.7423 15.5739 28.7331 15.5791C28.7239 15.5844 28.7129 15.5873 28.7016 15.5873H24.3281C24.1877 15.5873 24.0534 15.5398 23.9545 15.4556C23.8558 15.3715 23.8008 15.2579 23.8008 15.1399V11.4151C23.8008 11.4066 23.8038 11.398 23.8097 11.3906C23.8156 11.3831 23.8242 11.377 23.8346 11.3733C23.845 11.3697 23.8565 11.3687 23.8676 11.3706C23.8787 11.3724 23.8887 11.377 23.8964 11.3835Z" fill="white" stroke="#0075FF" stroke-width="0.0234375"/>
<defs>
<filter id="filter0_d_3530_4609" x="0.5" y="0.743164" width="45.5" height="40.3833" filterUnits="userSpaceOnUse" color-interpolation-filters="sRGB">
<feFlood flood-opacity="0" result="BackgroundImageFix"/>
<feColorMatrix in="SourceAlpha" type="matrix" values="0 0 0 0 0 0 0 0 0 0 0 0 0 0 0 0 0 0 127 0" result="hardAlpha"/>
<feOffset dy="3.5"/>
<feGaussianBlur stdDeviation="2.75"/>
<feColorMatrix type="matrix" values="0 0 0 0 0 0 0 0 0 0 0 0 0 0 0 0 0 0 0.02 0"/>
<feBlend mode="normal" in2="BackgroundImageFix" result="effect1_dropShadow_3530_4609"/>
<feBlend mode="normal" in="SourceGraphic" in2="effect1_dropShadow_3530_4609" result="shape"/>
</filter>
</defs>
</svg>
