<svg width="14" height="10" viewBox="0 0 14 10" fill="none" xmlns="http://www.w3.org/2000/svg">
<path d="M12.173 2.69814C12.1442 2.66139 12.1025 2.62963 12.0515 2.60544C12.0004 2.58125 11.9413 2.56531 11.879 2.55891C11.8168 2.55252 11.7531 2.55586 11.6931 2.56865C11.6332 2.58145 11.5787 2.60334 11.5342 2.63255L9.99736 3.64063C9.92192 3.68937 9.82026 3.71669 9.71434 3.71669C9.60842 3.71669 9.50675 3.68937 9.43131 3.64063L8.76696 3.20447C8.72979 3.18011 8.7003 3.15119 8.68019 3.11935C8.66007 3.08752 8.64971 3.0534 8.64971 3.01894C8.64971 2.98448 8.66007 2.95036 8.68019 2.91853C8.7003 2.8867 8.72979 2.85777 8.76696 2.83341L10.2973 1.83008C10.3431 1.80001 10.3772 1.76308 10.3965 1.72248C10.4157 1.68187 10.4196 1.6388 10.4079 1.59698C10.3961 1.55516 10.369 1.51584 10.3289 1.48241C10.2888 1.44898 10.2369 1.42244 10.1777 1.40507C9.02185 1.06631 7.57909 1.24307 6.66936 1.835C5.89645 2.33806 5.66608 3.12413 6.03778 3.99169C6.05782 4.03795 6.05793 4.08695 6.03811 4.13326C6.01829 4.17956 5.9793 4.22137 5.92547 4.25404L1.76128 6.74719C1.59905 6.84268 1.4682 6.95882 1.3767 7.08854C1.28521 7.21827 1.23499 7.35885 1.2291 7.50172C1.22322 7.64458 1.26179 7.78674 1.34248 7.91951C1.42316 8.05228 1.54426 8.17288 1.69839 8.27396C1.85252 8.37505 2.03644 8.45448 2.23895 8.50743C2.44145 8.56038 2.65829 8.58573 2.87623 8.58194C3.09417 8.57814 3.30865 8.54528 3.50658 8.48536C3.70451 8.42544 3.88174 8.33971 4.02747 8.23341L7.87149 5.49758C7.92062 5.46275 7.98332 5.43736 8.05282 5.42416C8.12233 5.41095 8.19602 5.41043 8.26595 5.42265C8.64274 5.49033 9.03139 5.52544 9.42206 5.5271C10.2575 5.5271 10.9906 5.34985 11.5194 5.0083C12.4987 4.37587 12.648 3.30318 12.173 2.69814ZM2.91663 8.05387C2.7519 8.06565 2.58564 8.04363 2.44081 7.99084C2.29598 7.93805 2.17971 7.85709 2.10805 7.75914C2.0364 7.66119 2.01289 7.55107 2.04077 7.44399C2.06865 7.33691 2.14654 7.23814 2.2637 7.16131C2.38086 7.08448 2.5315 7.03338 2.69485 7.01507C2.85819 6.99676 3.02618 7.01213 3.17563 7.05907C3.32507 7.10601 3.44861 7.18219 3.5292 7.27712C3.60978 7.37204 3.64343 7.48102 3.62551 7.58901C3.60579 7.70784 3.52477 7.81869 3.39586 7.90322C3.26696 7.98775 3.09789 8.0409 2.91663 8.05387Z" fill="white"/>
</svg>
