<svg width="16" height="16" viewBox="0 0 16 16" fill="none" xmlns="http://www.w3.org/2000/svg">
<path d="M10.5612 2.17717C9.98064 1.55974 9.16974 1.21973 8.2747 1.21973C7.37489 1.21973 6.5613 1.55768 5.9834 2.17129C5.39924 2.79166 5.11462 3.63478 5.18145 4.54521C5.31392 6.34137 6.70152 7.80251 8.2747 7.80251C9.84788 7.80251 11.2331 6.34166 11.3677 4.54579C11.4354 3.6436 11.149 2.80224 10.5612 2.17717Z" fill="#269100"/>
<path d="M13.525 14.3846H3.02324C2.88578 14.3863 2.74965 14.3579 2.62476 14.3013C2.49986 14.2447 2.38934 14.1614 2.30124 14.0575C2.10731 13.8291 2.02915 13.5173 2.08703 13.202C2.33883 11.8261 3.12467 10.6703 4.35983 9.85891C5.45714 9.13862 6.84714 8.74219 8.27412 8.74219C9.70111 8.74219 11.0911 9.13892 12.1884 9.85891C13.4236 10.67 14.2094 11.8258 14.4612 13.2017C14.5191 13.5171 14.4409 13.8289 14.247 14.0572C14.1589 14.1612 14.0484 14.2445 13.9235 14.3012C13.7986 14.3578 13.6625 14.3863 13.525 14.3846Z" fill="#269100"/>
</svg>
