<svg width="16" height="16" viewBox="0 0 16 16" fill="none" xmlns="http://www.w3.org/2000/svg">
<path d="M14.4028 1.20973C14.3974 1.18374 14.3845 1.15982 14.3657 1.14077C14.347 1.12172 14.3231 1.10833 14.2969 1.10217C12.5495 0.681346 8.51197 2.18099 6.32449 4.33479C5.93434 4.71599 5.57866 5.12996 5.26149 5.572C4.58693 5.51322 3.91237 5.5623 3.33746 5.80916C1.71535 6.5124 1.24307 8.34735 1.1115 9.13669C1.10403 9.1799 1.10685 9.22422 1.11972 9.26617C1.13259 9.30812 1.15517 9.34656 1.18568 9.37846C1.21618 9.41036 1.25379 9.43485 1.29553 9.45001C1.33728 9.46517 1.38202 9.47059 1.42625 9.46583L4.03111 9.18283C4.03297 9.37628 4.04482 9.5695 4.06661 9.76176C4.07972 9.89527 4.13989 10.02 4.23667 10.1144L5.24538 11.1056C5.34127 11.2009 5.46789 11.2601 5.60339 11.2732C5.79749 11.2945 5.99256 11.3062 6.18785 11.3081L5.90204 13.8707C5.89727 13.9143 5.90281 13.9583 5.91822 13.9994C5.93364 14.0405 5.9585 14.0775 5.99087 14.1075C6.02325 14.1376 6.06224 14.1598 6.1048 14.1725C6.14736 14.1852 6.19233 14.188 6.23618 14.1807C7.03605 14.0544 8.9022 13.5892 9.61197 11.9914C9.86258 11.4251 9.91389 10.7639 9.85601 10.1027C10.3059 9.79022 10.7272 9.43977 11.1153 9.05529C13.3097 6.90472 14.8235 3.01647 14.4028 1.20973ZM8.92607 6.48977C8.7257 6.29253 8.58922 6.04119 8.53388 5.76753C8.47855 5.49388 8.50686 5.21021 8.61522 4.9524C8.72358 4.69459 8.90713 4.47424 9.14265 4.3192C9.37817 4.16416 9.65508 4.0814 9.93836 4.0814C10.2216 4.0814 10.4985 4.16416 10.7341 4.3192C10.9696 4.47424 11.1531 4.69459 11.2615 4.9524C11.3699 5.21021 11.3982 5.49388 11.3428 5.76753C11.2875 6.04119 11.151 6.29253 10.9506 6.48977C10.8178 6.62083 10.66 6.72481 10.4863 6.79575C10.3126 6.86669 10.1264 6.9032 9.93836 6.9032C9.75032 6.9032 9.56413 6.86669 9.39043 6.79575C9.21673 6.72481 9.05894 6.62083 8.92607 6.48977Z" fill="#269100"/>
<path d="M5.17607 11.8235C5.01258 11.9849 4.75033 12.0477 4.43468 12.1015C3.72551 12.2205 3.09928 11.6169 3.22668 10.9107C3.27531 10.643 3.41911 10.2677 3.50861 10.1796C3.52818 10.1607 3.5412 10.1362 3.54583 10.1096C3.55046 10.083 3.54646 10.0556 3.53441 10.0314C3.52235 10.0072 3.50285 9.98728 3.47867 9.97458C3.45449 9.96188 3.42687 9.957 3.39972 9.96065C3.00314 10.0084 2.6342 10.1855 2.35163 10.4638C1.65022 11.1552 1.58398 13.7211 1.58398 13.7211C1.58398 13.7211 4.19033 13.6558 4.89175 12.9643C5.17507 12.6862 5.3551 12.3223 5.40281 11.9311C5.41385 11.8082 5.26199 11.7351 5.17607 11.8235Z" fill="#269100"/>
</svg>
