<svg width="13" height="9" viewBox="0 0 13 9" fill="none" xmlns="http://www.w3.org/2000/svg">
<g clip-path="url(#clip0_3530_4666)">
<path d="M6.49954 3.50407C6.1287 3.50407 5.76619 3.57587 5.45785 3.7104C5.14951 3.84493 4.90918 4.03614 4.76727 4.25985C4.62535 4.48356 4.58822 4.72973 4.66057 4.96722C4.73292 5.20471 4.91149 5.42286 5.17372 5.59409C5.43594 5.76531 5.77003 5.88191 6.13375 5.92915C6.49746 5.97639 6.87446 5.95215 7.21707 5.85948C7.55969 5.76682 7.85252 5.60989 8.05855 5.40856C8.26458 5.20722 8.37454 4.97052 8.37454 4.72837C8.37306 4.40396 8.17504 4.09312 7.82373 3.86373C7.47242 3.63434 6.99637 3.50504 6.49954 3.50407ZM10.5477 4.72837C10.5467 4.84277 10.5338 4.95699 10.5092 5.07026L11.6504 5.65364C11.7001 5.68044 11.7336 5.7179 11.7449 5.75934C11.7562 5.80077 11.7445 5.84348 11.712 5.87983L10.6325 7.09679C10.5997 7.13281 10.5485 7.16013 10.4879 7.17393C10.4272 7.18773 10.3611 7.18713 10.3011 7.17224L8.95931 6.82025C8.6799 6.96074 8.37415 7.07733 8.04946 7.16719L7.84884 8.09735C7.83761 8.13902 7.80457 8.17684 7.75537 8.20436C7.70616 8.23189 7.64385 8.2474 7.57907 8.24825H5.42001C5.35641 8.24744 5.29511 8.23258 5.24612 8.20609C5.19712 8.1796 5.16333 8.14305 5.15025 8.1024L4.94962 7.17224C4.62404 7.08342 4.31807 6.96664 4.03978 6.82499L2.69798 7.17698C2.638 7.19189 2.57189 7.19251 2.51128 7.17874C2.45067 7.16497 2.39943 7.13768 2.36658 7.10169L1.28705 5.88488C1.25455 5.84853 1.24291 5.80582 1.2542 5.76439C1.26549 5.72295 1.29898 5.68549 1.34869 5.65869L2.48986 5.07531C2.46552 4.96033 2.45268 4.84444 2.45142 4.72837C2.45239 4.61397 2.46524 4.49975 2.48986 4.38648L1.34869 3.8031C1.29898 3.77631 1.26549 3.73884 1.2542 3.69741C1.24291 3.65597 1.25455 3.61326 1.28705 3.57691L2.36658 2.35995C2.39939 2.32393 2.45061 2.29661 2.51123 2.28281C2.57185 2.26901 2.63798 2.26961 2.69798 2.28451L4.03978 2.63649C4.31918 2.49601 4.62494 2.37942 4.94962 2.28956L5.15025 1.35939C5.16147 1.31773 5.19451 1.2799 5.24372 1.25238C5.29292 1.22486 5.35524 1.20935 5.42001 1.2085H7.57907C7.64267 1.2093 7.70397 1.22417 7.75297 1.25065C7.80196 1.27714 7.83576 1.31369 7.84884 1.35434L8.04946 2.28451C8.37545 2.37326 8.68183 2.49004 8.96048 2.63175L10.3011 2.27976C10.3611 2.26486 10.4272 2.26423 10.4878 2.278C10.5484 2.29177 10.5997 2.31906 10.6325 2.35506L11.712 3.57202C11.7445 3.60836 11.7562 3.65107 11.7449 3.69251C11.7336 3.73394 11.7001 3.77141 11.6504 3.79821L10.5092 4.38159C10.5336 4.49651 10.5464 4.61235 10.5477 4.72837Z" fill="white"/>
</g>
<defs>
<clipPath id="clip0_3530_4666">
<rect width="12" height="7.83555" fill="white" transform="translate(0.5 0.810547)"/>
</clipPath>
</defs>
</svg>
