<svg width="16" height="16" viewBox="0 0 16 16" fill="none" xmlns="http://www.w3.org/2000/svg">
<path d="M13.2985 7.23906H9.12161C8.74181 7.23906 8.37756 7.09045 8.10899 6.82591C7.84043 6.56137 7.68955 6.20258 7.68955 5.82847V1.71423C7.68955 1.68305 7.67698 1.65315 7.6546 1.63111C7.63222 1.60906 7.60186 1.59668 7.57021 1.59668H4.82543C4.31902 1.59668 3.83335 1.79483 3.47527 2.14755C3.11719 2.50027 2.91602 2.97866 2.91602 3.47747V12.8814C2.91602 13.3803 3.11719 13.8587 3.47527 14.2114C3.83335 14.5641 4.31902 14.7622 4.82543 14.7622H11.5084C12.0148 14.7622 12.5005 14.5641 12.8585 14.2114C13.2166 13.8587 13.4178 13.3803 13.4178 12.8814V7.35661C13.4178 7.32544 13.4052 7.29554 13.3828 7.27349C13.3605 7.25145 13.3301 7.23906 13.2985 7.23906Z" fill="#269100"/>
<path d="M13.0368 6.19886L8.74627 1.97266C8.73792 1.96449 8.72731 1.95893 8.71577 1.95668C8.70423 1.95443 8.69227 1.9556 8.6814 1.96003C8.67053 1.96445 8.66123 1.97195 8.65467 1.98157C8.64811 1.99119 8.64458 2.00251 8.64453 2.01409V5.82888C8.64453 5.95358 8.69482 6.07318 8.78434 6.16136C8.87387 6.24954 8.99528 6.29908 9.12188 6.29908H12.9947C13.0065 6.29903 13.018 6.29555 13.0277 6.28909C13.0375 6.28263 13.0451 6.27347 13.0496 6.26276C13.0541 6.25205 13.0553 6.24027 13.053 6.2289C13.0507 6.21753 13.0451 6.20708 13.0368 6.19886Z" fill="#269100"/>
</svg>
