<svg width="16" height="16" viewBox="0 0 16 16" fill="none" xmlns="http://www.w3.org/2000/svg">
<path d="M14.5385 3.95546C14.5041 3.88961 14.4544 3.83268 14.3935 3.78932C14.3326 3.74596 14.2621 3.71739 14.1878 3.70593C14.1135 3.69448 14.0376 3.70046 13.9661 3.72339C13.8946 3.74633 13.8297 3.78556 13.7765 3.83791L11.9435 5.64464C11.8535 5.73199 11.7322 5.78096 11.6059 5.78096C11.4795 5.78096 11.3583 5.73199 11.2683 5.64464L10.4759 4.86294C10.4316 4.81928 10.3964 4.76744 10.3724 4.71038C10.3484 4.65333 10.336 4.59218 10.336 4.53042C10.336 4.46866 10.3484 4.40751 10.3724 4.35046C10.3964 4.2934 10.4316 4.24157 10.4759 4.1979L12.3012 2.39969C12.3559 2.3458 12.3965 2.27961 12.4195 2.20683C12.4425 2.13405 12.4471 2.05686 12.4331 1.98191C12.4191 1.90696 12.3867 1.83649 12.3389 1.77657C12.2911 1.71665 12.2292 1.66908 12.1586 1.63796C10.7799 1.03082 9.05905 1.34762 7.97397 2.4085C7.05208 3.31011 6.7773 4.71894 7.22065 6.27383C7.24455 6.35675 7.24469 6.44456 7.22104 6.52755C7.1974 6.61054 7.1509 6.68547 7.08669 6.74403L2.11983 11.2124C1.92633 11.3835 1.77026 11.5917 1.66113 11.8242C1.55199 12.0567 1.49209 12.3086 1.48507 12.5647C1.47805 12.8207 1.52407 13.0755 1.6203 13.3135C1.71654 13.5514 1.86098 13.7676 2.04482 13.9487C2.22865 14.1299 2.44803 14.2723 2.68957 14.3672C2.93111 14.4621 3.18974 14.5075 3.44969 14.5007C3.70964 14.4939 3.96546 14.435 4.20155 14.3276C4.43763 14.2202 4.64902 14.0666 4.82284 13.8761L9.40782 8.97277C9.46642 8.91034 9.5412 8.86484 9.6241 8.84117C9.70701 8.81751 9.7949 8.81657 9.87831 8.83847C10.3277 8.95976 10.7913 9.02269 11.2573 9.02567C12.2537 9.02567 13.1282 8.70799 13.7589 8.09585C14.9269 6.96238 15.105 5.03985 14.5385 3.95546ZM3.49789 13.5543C3.3014 13.5754 3.10309 13.5359 2.93034 13.4413C2.75759 13.3467 2.61892 13.2016 2.53345 13.026C2.44798 12.8505 2.41994 12.6531 2.45319 12.4612C2.48645 12.2693 2.57935 12.0923 2.71909 11.9546C2.85883 11.8169 3.03852 11.7253 3.23335 11.6925C3.42818 11.6597 3.62855 11.6872 3.8068 11.7713C3.98506 11.8555 4.13241 11.992 4.22852 12.1621C4.32464 12.3323 4.36478 12.5276 4.3434 12.7211C4.31988 12.9341 4.22324 13.1328 4.06949 13.2843C3.91574 13.4358 3.71408 13.531 3.49789 13.5543Z" fill="#269100"/>
</svg>
