<svg width="13" height="13" viewBox="0 0 13 13" fill="none" xmlns="http://www.w3.org/2000/svg">
<path d="M8.29627 1.91496C7.84018 1.42254 7.20315 1.15137 6.50002 1.15137C5.79315 1.15137 5.15401 1.4209 4.70002 1.91027C4.24112 2.40504 4.01752 3.07746 4.07002 3.80355C4.17409 5.23605 5.26416 6.40136 6.50002 6.40136C7.73588 6.40136 8.82408 5.23629 8.92979 3.80402C8.98299 3.08449 8.75799 2.41348 8.29627 1.91496Z" fill="white"/>
<path d="M10.6251 11.6514H2.37513C2.26715 11.6528 2.16021 11.6301 2.06209 11.585C1.96398 11.5398 1.87716 11.4734 1.80795 11.3905C1.6556 11.2084 1.5942 10.9597 1.63967 10.7082C1.83748 9.6109 2.45482 8.6891 3.42513 8.04199C4.28716 7.46754 5.37912 7.15137 6.50013 7.15137C7.62115 7.15137 8.7131 7.46777 9.57513 8.04199C10.5454 8.68887 11.1628 9.61066 11.3606 10.708C11.4061 10.9595 11.3447 11.2082 11.1923 11.3903C11.1231 11.4732 11.0363 11.5397 10.9382 11.5849C10.8401 11.63 10.7331 11.6527 10.6251 11.6514Z" fill="white"/>
</svg>
