<svg width="30" height="30" viewBox="0 0 30 30" fill="none" xmlns="http://www.w3.org/2000/svg">
<path d="M14.9532 4.05371C8.822 4.05371 3.84766 8.96759 3.84766 15.0242C3.84766 21.0809 8.822 25.9948 14.9532 25.9948C21.0843 25.9948 26.0587 21.0809 26.0587 15.0242C26.0587 8.96759 21.0843 4.05371 14.9532 4.05371ZM14.6061 21.4237C14.3773 21.4237 14.1537 21.3567 13.9634 21.2311C13.7732 21.1055 13.6249 20.9271 13.5373 20.7183C13.4498 20.5094 13.4269 20.2797 13.4715 20.058C13.5162 19.8363 13.6263 19.6327 13.7881 19.4729C13.9499 19.3131 14.156 19.2042 14.3804 19.1601C14.6048 19.116 14.8374 19.1387 15.0488 19.2252C15.2602 19.3117 15.4409 19.4581 15.568 19.6461C15.6951 19.834 15.7629 20.0549 15.7629 20.2809C15.7629 20.584 15.6411 20.8747 15.4241 21.089C15.2072 21.3033 14.9129 21.4237 14.6061 21.4237ZM16.5403 15.5956C15.6027 16.2173 15.4737 16.7869 15.4737 17.3098C15.4737 17.5219 15.3884 17.7254 15.2366 17.8754C15.0847 18.0254 14.8787 18.1097 14.664 18.1097C14.4492 18.1097 14.2432 18.0254 14.0914 17.8754C13.9395 17.7254 13.8542 17.5219 13.8542 17.3098C13.8542 16.0579 14.4372 15.0625 15.6368 14.2666C16.752 13.5272 17.3825 13.0587 17.3825 12.0285C17.3825 11.328 16.9776 10.796 16.1395 10.4023C15.9422 10.3098 15.5032 10.2195 14.963 10.2258C14.2851 10.2343 13.7587 10.3943 13.3533 10.7166C12.5886 11.3245 12.5238 11.9862 12.5238 11.9959C12.5187 12.101 12.4927 12.204 12.4472 12.2991C12.4018 12.3942 12.3379 12.4796 12.259 12.5503C12.1802 12.621 12.0881 12.6756 11.9879 12.7111C11.8877 12.7467 11.7814 12.7623 11.675 12.7573C11.5687 12.7522 11.4644 12.7265 11.3681 12.6816C11.2718 12.6367 11.1854 12.5736 11.1138 12.4957C11.0423 12.4178 10.9869 12.3268 10.951 12.2278C10.915 12.1288 10.8992 12.0238 10.9043 11.9188C10.9106 11.7799 11.0084 10.5292 12.337 9.47326C13.0259 8.92588 13.9022 8.64133 14.9399 8.62876C15.6744 8.62019 16.3645 8.74304 16.8324 8.96131C18.2328 9.61554 19.002 10.7063 19.002 12.0285C19.002 13.9615 17.6943 14.8294 16.5403 15.5956Z" fill="#269100"/>
</svg>
