<svg width="13" height="9" viewBox="0 0 13 9" fill="none" xmlns="http://www.w3.org/2000/svg">
<g clip-path="url(#clip0_3530_4667)">
<path d="M10.8143 6.03342C10.7754 6.00282 10.7372 5.97221 10.6997 5.94267C10.1841 5.53544 9.87213 5.28966 9.87213 4.13682C9.87213 3.53997 9.65346 3.05025 9.22244 2.68296C8.90463 2.41163 8.47502 2.20579 7.90877 2.05367C7.90149 2.05102 7.89498 2.04755 7.88955 2.04342C7.68588 1.59808 7.12854 1.2998 6.49995 1.2998C5.87135 1.2998 5.31424 1.59808 5.11057 2.04296C5.10514 2.04694 5.09872 2.0503 5.09159 2.0529C3.77018 2.40811 3.12799 3.08958 3.12799 4.13636C3.12799 5.28966 2.81651 5.53544 2.30042 5.94221C2.26292 5.97175 2.22471 6.00174 2.18581 6.03296C2.08531 6.1121 2.02163 6.20839 2.00232 6.31042C1.983 6.41245 2.00886 6.51596 2.07682 6.60869C2.22143 6.80764 2.52963 6.93114 2.88143 6.93114H10.121C10.4712 6.93114 10.7773 6.8078 10.9224 6.60976C10.9906 6.517 11.0167 6.41341 10.9976 6.31126C10.9784 6.20912 10.9148 6.11269 10.8143 6.03342Z" fill="white"/>
<path d="M6.50142 8.15646C6.8401 8.15628 7.17239 8.09625 7.46305 7.98274C7.75371 7.86922 7.9919 7.70646 8.15236 7.51171C8.15992 7.50238 8.16365 7.49192 8.1632 7.48137C8.16274 7.47082 8.15812 7.46052 8.14976 7.45148C8.14141 7.44244 8.12962 7.43496 8.11554 7.42977C8.10146 7.42459 8.08556 7.42186 8.06939 7.42188H4.93392C4.91773 7.42184 4.90181 7.42454 4.88769 7.42972C4.87357 7.43489 4.86175 7.44237 4.85337 7.45141C4.845 7.46046 4.84035 7.47077 4.83988 7.48133C4.83942 7.4919 4.84315 7.50236 4.85072 7.51171C5.01116 7.70644 5.24931 7.86919 5.53992 7.9827C5.83054 8.09621 6.16278 8.15625 6.50142 8.15646Z" fill="white"/>
</g>
<defs>
<clipPath id="clip0_3530_4667">
<rect width="12" height="7.83555" fill="white" transform="translate(0.5 0.810547)"/>
</clipPath>
</defs>
</svg>
