<svg width="16" height="16" viewBox="0 0 16 16" fill="none" xmlns="http://www.w3.org/2000/svg">
<path d="M1.50586 11.219C1.50586 11.6555 1.68235 12.0741 1.99651 12.3827C2.31066 12.6913 2.73675 12.8647 3.18104 12.8647H13.2321C13.6764 12.8647 14.1025 12.6913 14.4166 12.3827C14.7308 12.0741 14.9073 11.6555 14.9073 11.219V6.69336H1.50586V11.219ZM3.48018 8.98558C3.48018 8.75176 3.57472 8.52751 3.74302 8.36218C3.91132 8.19684 4.13958 8.10396 4.37759 8.10396H5.81346C6.05147 8.10396 6.27973 8.19684 6.44803 8.36218C6.61633 8.52751 6.71087 8.75176 6.71087 8.98558V9.57333C6.71087 9.80715 6.61633 10.0314 6.44803 10.1967C6.27973 10.3621 6.05147 10.4549 5.81346 10.4549H4.37759C4.13958 10.4549 3.91132 10.3621 3.74302 10.1967C3.57472 10.0314 3.48018 9.80715 3.48018 9.57333V8.98558Z" fill="#269100"/>
<path d="M13.2321 2.52002H3.18104C2.73675 2.52002 2.31066 2.6934 1.99651 3.00203C1.68235 3.31066 1.50586 3.72925 1.50586 4.16571V4.92979H14.9073V4.16571C14.9073 3.72925 14.7308 3.31066 14.4166 3.00203C14.1025 2.6934 13.6764 2.52002 13.2321 2.52002Z" fill="#269100"/>
</svg>
