<svg width="16" height="16" viewBox="0 0 16 16" fill="none" xmlns="http://www.w3.org/2000/svg">
<g clip-path="url(#clip0_3530_4378)">
<path d="M7.9557 3.93045C7.91128 3.88859 7.85218 3.86523 7.79071 3.86523C7.72924 3.86523 7.67015 3.88859 7.62573 3.93045L2.13318 9.09881C2.10985 9.12079 2.0913 9.1472 2.07863 9.17645C2.06596 9.2057 2.05945 9.23717 2.05949 9.26896L2.05859 14.1197C2.05859 14.3691 2.15918 14.6083 2.33822 14.7846C2.51726 14.961 2.7601 15.06 3.0133 15.06H5.8804C6.00701 15.06 6.12842 15.0105 6.21794 14.9223C6.30747 14.8342 6.35776 14.7146 6.35776 14.5899V10.5932C6.35776 10.5308 6.3829 10.471 6.42766 10.4269C6.47242 10.3828 6.53313 10.3581 6.59643 10.3581H8.9832C9.0465 10.3581 9.10721 10.3828 9.15197 10.4269C9.19673 10.471 9.22188 10.5308 9.22188 10.5932V14.5899C9.22188 14.7146 9.27217 14.8342 9.36169 14.9223C9.45121 15.0105 9.57263 15.06 9.69923 15.06H12.5651C12.8183 15.06 13.0612 14.961 13.2402 14.7846C13.4193 14.6083 13.5198 14.3691 13.5198 14.1197V9.26896C13.5199 9.23717 13.5134 9.2057 13.5007 9.17645C13.488 9.1472 13.4695 9.12079 13.4462 9.09881L7.9557 3.93045Z" fill="white"/>
<path d="M14.7977 8.12907L12.566 6.02611V2.83493C12.566 2.71022 12.5157 2.59063 12.4262 2.50245C12.3367 2.41427 12.2153 2.36473 12.0887 2.36473H10.6566C10.53 2.36473 10.4086 2.41427 10.3191 2.50245C10.2296 2.59063 10.1793 2.71022 10.1793 2.83493V3.77533L8.45125 2.14785C8.28954 1.98681 8.04908 1.89453 7.78922 1.89453C7.53025 1.89453 7.29038 1.98681 7.12868 2.14814L0.782864 8.12848C0.597293 8.30481 0.574022 8.59486 0.742886 8.78588C0.78529 8.8341 0.837211 8.87331 0.895489 8.90113C0.953767 8.92895 1.01718 8.9448 1.08188 8.94772C1.14657 8.95063 1.21119 8.94055 1.27181 8.91808C1.33242 8.89562 1.38776 8.86123 1.43445 8.81703L7.62513 2.99009C7.66955 2.94824 7.72864 2.92488 7.79011 2.92488C7.85158 2.92488 7.91068 2.94824 7.9551 2.99009L14.1464 8.81703C14.2376 8.90318 14.3597 8.9502 14.4861 8.94777C14.6124 8.94535 14.7326 8.89368 14.8203 8.8041C15.0035 8.6172 14.9883 8.30863 14.7977 8.12907Z" fill="white"/>
</g>
<defs>
<clipPath id="clip0_3530_4378">
<rect width="15.2753" height="15.0464" fill="white" transform="translate(0.152344 0.953613)"/>
</clipPath>
</defs>
</svg>
