<svg width="16" height="16" viewBox="0 0 16 16" fill="none" xmlns="http://www.w3.org/2000/svg">
<g clip-path="url(#clip0_3530_4373)">
<path d="M3.25277 14.6966H2.29806C2.10816 14.6966 1.92603 14.6223 1.79175 14.49C1.65747 14.3577 1.58203 14.1783 1.58203 13.9913V9.7595C1.58203 9.57244 1.65747 9.39305 1.79175 9.26078C1.92603 9.12851 2.10816 9.0542 2.29806 9.0542H3.25277C3.44267 9.0542 3.6248 9.12851 3.75908 9.26078C3.89336 9.39305 3.9688 9.57244 3.9688 9.7595V13.9913C3.9688 14.1783 3.89336 14.3577 3.75908 14.49C3.6248 14.6223 3.44267 14.6966 3.25277 14.6966Z" fill="#269100"/>
<path d="M9.93636 14.696H8.98166C8.79175 14.696 8.60963 14.6217 8.47535 14.4894C8.34106 14.3572 8.26562 14.1778 8.26562 13.9907V6.93772C8.26562 6.75066 8.34106 6.57127 8.47535 6.439C8.60963 6.30673 8.79175 6.23242 8.98166 6.23242H9.93636C10.1263 6.23242 10.3084 6.30673 10.4427 6.439C10.577 6.57127 10.6524 6.75066 10.6524 6.93772V13.9907C10.6524 14.1778 10.577 14.3572 10.4427 14.4894C10.3084 14.6217 10.1263 14.696 9.93636 14.696Z" fill="#269100"/>
<path d="M13.2762 14.6964H12.3215C12.1316 14.6964 11.9495 14.6221 11.8152 14.4898C11.6809 14.3575 11.6055 14.1781 11.6055 13.9911V3.6467C11.6055 3.45965 11.6809 3.28025 11.8152 3.14798C11.9495 3.01571 12.1316 2.94141 12.3215 2.94141H13.2762C13.4661 2.94141 13.6482 3.01571 13.7825 3.14798C13.9168 3.28025 13.9922 3.45965 13.9922 3.6467V13.9911C13.9922 14.1781 13.9168 14.3575 13.7825 14.4898C13.6482 14.6221 13.4661 14.6964 13.2762 14.6964Z" fill="#269100"/>
<path d="M6.59457 14.6958H5.63986C5.44996 14.6958 5.26783 14.6215 5.13355 14.4892C4.99927 14.357 4.92383 14.1776 4.92383 13.9905V1.29514C4.92383 1.10809 4.99927 0.92869 5.13355 0.796421C5.26783 0.664152 5.44996 0.589844 5.63986 0.589844H6.59457C6.78447 0.589844 6.96659 0.664152 7.10088 0.796421C7.23516 0.92869 7.3106 1.10809 7.3106 1.29514V13.9905C7.3106 14.1776 7.23516 14.357 7.10088 14.4892C6.96659 14.6215 6.78447 14.6958 6.59457 14.6958Z" fill="#269100"/>
</g>
<defs>
<clipPath id="clip0_3530_4373">
<rect width="15.2753" height="15.0464" fill="white" transform="translate(0.150391 0.120117)"/>
</clipPath>
</defs>
</svg>
