<svg width="839" height="173" viewBox="0 0 839 173" fill="none" xmlns="http://www.w3.org/2000/svg">
<path d="M114.512 98.3757C71.3389 89.3702 20.7548 102.128 0.859375 109.633V172.03H837.933V24.3734C796.153 29.5248 760.661 28.1889 753.946 55.0908C748.47 77.0321 748.226 92.6772 719.129 97.2562C689.877 101.86 672.872 74.9333 643.527 55.0908C620.05 39.2168 580.511 59.8731 565.921 66.4872C540.057 77.9985 481.261 52.8827 455.78 33.1399C419.396 4.94936 371.549 2.37096 335.413 33.1399C299.277 63.9088 263.433 38.6826 218.419 55.0908C173.406 71.4991 168.478 109.633 114.512 98.3757Z" fill="url(#paint0_linear_3593_457)"/>
<path d="M0.859375 109.759C20.7548 102.245 71.3389 89.4705 114.512 98.4875C168.478 109.759 173.406 71.5765 218.419 55.1473C263.433 38.718 299.277 63.9765 335.413 33.1682C371.549 2.35988 419.396 4.94159 455.78 33.1682C481.261 52.9363 540.057 78.0842 565.921 66.5583C580.511 59.9356 620.05 39.2529 643.527 55.1473C672.872 75.0152 689.877 101.976 719.129 97.3666C748.226 92.7818 748.47 77.1166 753.946 55.1473C760.661 28.2109 796.153 29.5485 837.933 24.3905" stroke="#A0AEC0" stroke-width="2"/>
<defs>
<linearGradient id="paint0_linear_3593_457" x1="419.396" y1="11.0195" x2="419.396" y2="172.03" gradientUnits="userSpaceOnUse">
<stop stop-color="#043BFF" stop-opacity="0.49"/>
<stop offset="0.345" stop-color="#0327A7" stop-opacity="0.55"/>
<stop offset="1"/>
</linearGradient>
</defs>
</svg>
