<svg width="146" height="147" viewBox="0 0 146 147" fill="none" xmlns="http://www.w3.org/2000/svg">
<path d="M115.924 98.4807C117.433 99.352 119.372 98.8387 120.152 97.2806C123.846 89.9045 125.779 81.756 125.779 73.478C125.779 65.2001 123.846 57.0515 120.152 49.6755C119.372 48.1174 117.433 47.6041 115.924 48.4753C114.415 49.3466 113.908 51.2722 114.676 52.8365C117.823 59.2481 119.468 66.308 119.468 73.478C119.468 80.6481 117.823 87.708 114.676 94.1196C113.908 95.6839 114.415 97.6094 115.924 98.4807Z" fill="#22234B"/>
<path d="M117.748 51.6638C119.155 51.0864 119.835 49.4735 119.175 48.1034C116.273 42.0775 112.096 36.7399 106.923 32.4664C101.041 27.6073 94.0514 24.2739 86.5733 22.7614C79.0952 21.2489 71.3595 21.604 64.0514 23.7952C56.7434 25.9865 50.0885 29.9463 44.6763 35.3238C39.264 40.7013 35.2616 47.3306 33.0234 54.6244C30.7852 61.9182 30.3803 69.6515 31.8447 77.1392C33.3091 84.6269 36.5975 91.6378 41.4186 97.5511C45.6587 102.752 50.9693 106.962 56.9765 109.903C58.3423 110.572 59.9595 109.902 60.546 108.499C61.1325 107.096 60.4654 105.491 59.105 104.812C53.9312 102.228 49.3546 98.5697 45.6868 94.0711C41.438 88.8598 38.5399 82.6811 37.2494 76.0822C35.9588 69.4833 36.3156 62.668 38.2882 56.24C40.2607 49.8119 43.7881 43.9696 48.5578 39.2304C53.3276 34.4912 59.1925 31.0015 65.6331 29.0703C72.0737 27.1392 78.8912 26.8262 85.4816 28.1592C92.072 29.4922 98.232 32.4299 103.416 36.7122C107.891 40.4088 111.519 45.0088 114.07 50.1991C114.741 51.5639 116.341 52.2413 117.748 51.6638Z" fill="url(#paint0_linear_3530_4568)"/>
<defs>
<linearGradient id="paint0_linear_3530_4568" x1="68.8417" y1="27.3116" x2="32.5144" y2="74.5809" gradientUnits="userSpaceOnUse">
<stop stop-color="#0075FF"/>
<stop offset="1" stop-color="#0075FF" stop-opacity="0"/>
</linearGradient>
</defs>
</svg>
